<?xml version="1.0" encoding="utf-8"?>
<!-- Generator: Adobe Illustrator 25.4.1, SVG Export Plug-In . SVG Version: 6.00 Build 0)  -->
<svg version="1.1" id="Calque_1" xmlns="http://www.w3.org/2000/svg" xmlns:xlink="http://www.w3.org/1999/xlink" x="0px" y="0px"
	 viewBox="0 0 1080 1080" style="enable-background:new 0 0 1080 1080;" xml:space="preserve">
<g>
	<circle cx="291.03" cy="699.98" r="83.87"/>
	<circle cx="792.3" cy="690.78" r="83.87"/>
	<circle cx="410.71" cy="549.61" r="47.26"/>
	<circle cx="670.42" cy="540.81" r="47.26"/>
	<path d="M650.09,708.56c-5.02-4.96-13.19-4.53-17.71,0.9c-2.27,2.73-4.68,5.37-7.22,7.91C603.48,739.06,574.64,751,543.97,751
		c-30.67,0-59.51-11.94-81.19-33.63c-2.08-2.08-4.07-4.22-5.96-6.43c-4.56-5.31-12.71-5.55-17.62-0.56
		c-4.4,4.46-4.61,11.54-0.52,16.29c2.27,2.64,4.64,5.2,7.12,7.68c12.75,12.75,27.59,22.76,44.13,29.75
		c17.12,7.24,35.31,10.92,54.05,10.92c18.74,0,36.92-3.67,54.05-10.92c16.53-6.99,31.38-17,44.13-29.75
		c3.08-3.08,5.99-6.28,8.75-9.59C654.87,719.97,654.51,712.93,650.09,708.56L650.09,708.56z"/>
	<path d="M510.52,673.83h65.57c6.34,0,11.51-5.16,11.51-11.51s-5.16-11.51-11.51-11.51h-55.32l31.23-105.21
		c0.87-2.94,0.55-6.05-0.92-8.76c-1.47-2.7-3.9-4.67-6.84-5.55c-1.07-0.32-2.17-0.48-3.28-0.48c-5.05,0-9.59,3.39-11.03,8.24
		l-34.24,115.38l-0.12,0.45c-1.2,4.65-0.16,9.48,2.84,13.24C501.29,671.76,505.71,673.83,510.52,673.83z"/>
	<path d="M983.58,351.18c-12.09-28.59-27.06-56.17-44.49-81.97c-17.26-25.55-37.08-49.57-58.91-71.4
		c-21.83-21.83-45.85-41.65-71.4-58.91c-25.8-17.43-53.37-32.4-81.97-44.49c-59.49-25.16-122.68-37.92-187.82-37.92
		S410.67,69.25,351.18,94.41c-28.59,12.09-56.17,27.06-81.97,44.49c-25.55,17.26-49.57,37.08-71.4,58.91
		c-21.83,21.83-41.65,45.85-58.91,71.4c-17.43,25.79-32.4,53.37-44.49,81.97c-25.16,59.49-37.92,122.68-37.92,187.82
		s12.76,128.32,37.92,187.82c12.09,28.59,27.06,56.17,44.49,81.97c17.26,25.55,37.08,49.57,58.91,71.4
		c21.83,21.83,45.85,41.65,71.4,58.91c25.79,17.43,53.37,32.39,81.97,44.49c59.49,25.16,122.68,37.92,187.82,37.92
		s128.32-12.76,187.82-37.92c28.59-12.09,56.17-27.06,81.97-44.49c25.54-17.26,49.57-37.08,71.4-58.91s41.65-45.86,58.91-71.4
		c17.43-25.8,32.4-53.37,44.49-81.97c25.16-59.49,37.92-122.68,37.92-187.82S1008.74,410.67,983.58,351.18z M996.49,538.99
		c0,61.77-12.09,121.68-35.95,178.07c-11.47,27.11-25.66,53.25-42.18,77.71c-16.37,24.23-35.17,47.01-55.87,67.72
		s-43.49,39.5-67.72,55.87c-24.46,16.52-50.6,30.71-77.71,42.18c-56.39,23.85-116.31,35.95-178.07,35.95s-121.68-12.09-178.07-35.95
		c-27.1-11.46-53.25-25.66-77.71-42.18c-24.23-16.37-47.01-35.17-67.72-55.87c-20.71-20.71-39.5-43.49-55.87-67.72
		c-16.52-24.46-30.71-50.6-42.18-77.71c-18.09-42.77-29.41-87.56-33.83-133.64l87.96-83.97l83.24,17.98l86.69-132.43l89.55,63.93
		l90.66-159.03l100.53,131.4l109.82-41.3l89.86,92.58L908,423l85.97,67.68C995.64,506.63,996.49,522.75,996.49,538.99z"/>
</g>
</svg>
