<?xml version="1.0" encoding="utf-8"?>
<!-- Generator: Adobe Illustrator 25.4.1, SVG Export Plug-In . SVG Version: 6.00 Build 0)  -->
<svg version="1.1" id="Calque_1" xmlns="http://www.w3.org/2000/svg" xmlns:xlink="http://www.w3.org/1999/xlink" x="0px" y="0px"
	 viewBox="0 0 1080 474" style="enable-background:new 0 0 1080 474;" xml:space="preserve">
<g>
	<circle cx="143.5" cy="335.46" r="131.5"/>
	<circle cx="929.5" cy="321.02" r="131.5"/>
	<circle cx="331.17" cy="99.68" r="74.1"/>
	<circle cx="738.39" cy="85.87" r="74.1"/>
	<path d="M706.51,348.9c-7.87-7.78-20.69-7.1-27.76,1.41c-3.56,4.28-7.33,8.42-11.32,12.41c-34.01,34.01-79.22,52.73-127.31,52.73
		c-48.09,0-93.3-18.73-127.31-52.73c-3.26-3.26-6.37-6.62-9.35-10.08c-7.16-8.32-19.92-8.7-27.63-0.88c-6.89,7-7.22,18.1-0.82,25.55
		c3.56,4.13,7.28,8.15,11.17,12.04c19.99,19.99,43.27,35.68,69.19,46.65c26.85,11.36,55.36,17.12,84.74,17.12
		c29.38,0,57.89-5.76,84.74-17.12c25.93-10.97,49.21-26.66,69.19-46.65c4.83-4.83,9.4-9.84,13.71-15.04
		C714,366.79,713.45,355.76,706.51,348.9L706.51,348.9z"/>
	<path d="M487.67,294.45h102.81c9.95,0,18.04-8.09,18.04-18.04c0-9.95-8.09-18.04-18.04-18.04h-86.75L552.69,93.4
		c1.37-4.61,0.86-9.49-1.44-13.73c-2.3-4.24-6.11-7.33-10.72-8.7c-1.68-0.5-3.41-0.75-5.14-0.75c-7.92,0-15.03,5.31-17.29,12.91
		l-53.69,180.92l-0.19,0.7c-1.88,7.3-0.25,14.87,4.46,20.76C473.2,291.2,480.13,294.45,487.67,294.45z"/>
</g>
</svg>
